<?xml version="1.0" standalone="no"?>
<!DOCTYPE svg PUBLIC "-//W3C//DTD SVG 20010904//EN"
 "http://www.w3.org/TR/2001/REC-SVG-20010904/DTD/svg10.dtd">
<svg version="1.0" xmlns="http://www.w3.org/2000/svg"
 width="600.000000pt" height="600.000000pt" viewBox="0 0 600.000000 600.000000"
 preserveAspectRatio="xMidYMid meet">
<metadata>
Created by potrace 1.14, written by Peter Selinger 2001-2017
</metadata>
<g transform="translate(0.000000,600.000000) scale(0.100000,-0.100000)"
fill="#000000" stroke="none">
<path d="M2631 4989 c-339 -36 -701 -178 -981 -388 -95 -71 -274 -244 -353
-341 -497 -616 -586 -1463 -226 -2171 410 -808 1316 -1238 2195 -1043 153 34
434 132 434 152 0 4 -23 30 -52 59 -49 50 -52 51 -78 38 -55 -29 -269 -94
-380 -117 -101 -20 -143 -23 -350 -23 -216 1 -245 3 -361 28 -535 114 -978
436 -1244 906 -97 172 -162 352 -208 576 -29 148 -32 509 -4 650 100 503 341
891 738 1185 234 174 525 290 839 336 157 22 429 15 585 -16 530 -105 978
-423 1251 -886 270 -458 326 -1022 152 -1538 -29 -88 -119 -273 -171 -354
l-45 -69 487 -487 486 -486 100 0 100 0 -493 493 -492 492 65 126 c244 474
278 1071 88 1579 -322 862 -1174 1394 -2082 1299z"/>
<path d="M2645 4704 c-413 -62 -749 -232 -1020 -515 -257 -270 -406 -576 -461
-949 -22 -154 -15 -440 15 -582 139 -650 624 -1159 1256 -1318 166 -42 282
-54 478 -47 195 7 305 26 476 83 l113 37 -59 58 -58 59 -75 -24 c-445 -142
-928 -71 -1330 195 -138 92 -325 281 -423 429 -272 410 -337 901 -181 1369 87
263 245 503 445 678 486 423 1155 509 1730 222 561 -280 907 -902 850 -1527
-31 -341 -162 -655 -362 -867 l-47 -50 474 -478 473 -477 103 0 103 0 -473
473 c-259 259 -472 476 -472 481 0 5 22 38 49 75 147 201 245 451 287 733 22
152 15 439 -15 580 -60 280 -197 562 -374 769 -246 288 -584 489 -954 570 -78
17 -140 22 -308 24 -115 2 -223 1 -240 -1z"/>
<path d="M2680 4410 c-329 -46 -599 -178 -825 -405 -214 -213 -349 -468 -401
-755 -24 -131 -24 -383 -1 -505 96 -494 424 -894 881 -1075 185 -73 423 -107
623 -90 96 9 142 16 281 47 12 3 24 9 27 12 2 4 -22 33 -53 64 l-57 56 -65
-14 c-36 -8 -119 -18 -185 -21 -362 -20 -726 128 -978 396 -176 187 -290 419
-333 679 -23 145 -15 357 20 496 126 504 522 873 1025 959 183 31 405 16 583
-40 434 -136 770 -503 863 -945 66 -310 13 -649 -142 -914 -56 -95 -185 -248
-281 -331 l-78 -69 469 -478 469 -477 107 0 106 0 -468 468 c-257 257 -467
471 -467 476 0 4 36 47 81 94 184 194 303 424 356 689 25 123 25 413 0 536
-59 292 -186 530 -396 738 -216 214 -460 345 -740 395 -105 19 -332 26 -421
14z"/>
<path d="M2636 4115 c-356 -74 -643 -295 -802 -620 -30 -60 -66 -155 -81 -210
-25 -93 -27 -114 -27 -290 0 -163 3 -201 22 -268 131 -476 508 -805 984 -857
99 -11 262 -6 286 9 7 4 -11 29 -51 68 l-62 61 -110 5 c-252 14 -475 116 -651
298 -83 88 -144 175 -190 274 -229 495 -6 1090 494 1317 121 55 241 80 387 81
72 1 157 -5 190 -12 293 -61 524 -226 675 -480 106 -179 153 -430 120 -641
-18 -108 -9 -100 -117 -100 l-95 0 66 -70 c36 -39 66 -76 66 -83 -1 -18 -53
-110 -66 -114 -6 -2 -70 57 -141 132 l-131 135 -103 0 -104 0 198 -198 197
-197 -50 -50 -50 -50 -248 248 -247 247 -105 0 -105 0 289 -289 c159 -159 286
-293 283 -297 -3 -5 -30 -22 -61 -39 l-56 -30 -328 328 -328 328 -96 -3 -96
-3 866 -873 867 -873 105 1 105 0 -493 493 -493 493 89 53 c177 105 325 269
425 472 274 555 36 1234 -527 1509 -157 77 -266 102 -466 106 -115 2 -186 -1
-234 -11z"/>
</g>
</svg>
