<?xml version="1.0" encoding="UTF-8"?><svg id="Layer_2" xmlns="http://www.w3.org/2000/svg" viewBox="0 0 418.39 68.03"><defs><style>.cls-1{fill:#191c1b;}</style></defs><g id="Artwork"><g><path class="cls-1" d="M75.32,48.21V20.32s12.23,0,12.23,0v27.21c0,6.21,2.96,9.86,8.48,9.86,6.41,0,9.07-5.42,9.07-13.41V20.32s12.22,0,12.22,0v46.53s-12.22,0-12.22,0v-6.6c-2.47,4.83-6.7,7.49-12.72,7.49-10.55,0-17.06-7.49-17.06-19.52Z"/><path class="cls-1" d="M124.32,54.52c0-10.45,7.79-12.82,18.24-15.08,8.58-1.68,12.91-2.07,13.21-4.63v-.49c0-2.76-2.47-5.32-8.77-5.32s-9.27,3.15-9.56,7.3v.69s-12.13,0-12.13,0c.39-10.55,8.68-17.55,21.79-17.55,12.62,0,20.31,5.52,20.31,18.14v29.28s-11.73,0-11.73,0v-6.31c-2.96,4.83-8.28,7.49-15.18,7.49-9.96,0-16.17-5.42-16.17-13.51Zm31.45-6.9v-3.94c-2.66,1.58-7,2.37-10.84,3.35-4.73,1.18-8.28,2.76-8.28,6.9,0,3.15,2.47,5.32,6.7,5.32,5.82,0,12.12-2.96,12.42-11.63Z"/><path class="cls-1" d="M236.89,54.53c-1.68,.89-3.06,1.18-4.73,1.18-4.14,0-6.52-1.97-6.52-8.09V30.17h9.27v-9.86h-9.17V4.84l-11.93,6.7v8.77h-6.6v9.86h6.6v17.65c0,12.33,6.61,19.33,17.85,19.33,2.66,0,5.32-.49,8.09-1.77l-2.86-10.85Z"/><path class="cls-1" d="M240.69,43.88c0-14.39,9.66-24.45,23.27-24.45,14.1,0,22.48,9.36,22.48,24.06v4.14s-33.71,0-33.71,0c.79,6.7,5.12,10.45,11.73,10.45,6.9,0,9.86-3.25,11.34-7.2l10.65,3.75c-3.25,7.49-10.06,13.01-22.18,13.01-14.49,0-23.56-9.27-23.56-23.76Zm33.42-4.73c-.49-6.8-4.14-10.25-10.45-10.25-5.92,0-10.25,3.75-11.14,10.25h21.59Z"/><path class="cls-1" d="M355.22,43.88c0-14.39,9.66-24.45,23.27-24.45,14.1,0,22.48,9.36,22.48,24.06v4.14s-33.71,0-33.71,0c.79,6.7,5.12,10.45,11.73,10.45,6.9,0,9.86-3.25,11.34-7.2l10.65,3.75c-3.25,7.49-10.06,13.01-22.18,13.01-14.49,0-23.56-9.27-23.56-23.76Zm33.42-4.73c-.49-6.8-4.14-10.25-10.45-10.25-5.92,0-10.25,3.75-11.14,10.25h21.59Z"/><g><path class="cls-1" d="M188.11,42.99v23.86s-12.23,0-12.23,0V20.32s12.23,0,12.23,0v8.58"/><circle class="cls-1" cx="197.35" cy="26.4" r="6.97"/></g><g><path class="cls-1" d="M305.37,42.99v23.86s-12.23,0-12.23,0V20.32s12.23,0,12.23,0v8.58"/><circle class="cls-1" cx="314.61" cy="26.4" r="6.97"/></g><g><path class="cls-1" d="M338.77,42.99v23.86s-12.23,0-12.23,0V20.32s12.23,0,12.23,0v8.58"/><circle class="cls-1" cx="348.01" cy="26.4" r="6.97"/></g><path class="cls-1" d="M71.54,66.85l-11.24-11.24c4.83-5.87,7.73-13.39,7.73-21.59C68.03,15.23,52.8,0,34.02,0S0,15.23,0,34.02s15.23,34.02,34.02,34.02c6.61,0,12.78-1.89,18.01-5.16l3.98,3.98h15.54Zm-37.53-11.04c-12.03,0-21.79-9.76-21.79-21.79S21.98,12.23,34.02,12.23s21.79,9.76,21.79,21.79c0,4.82-1.58,9.26-4.23,12.87l-9.79-9.79h-15.54l16.76,16.76c-2.74,1.24-5.78,1.95-8.99,1.95Z"/><circle class="cls-1" cx="411.42" cy="60.67" r="6.97"/></g></g></svg>