<?xml version="1.0" encoding="UTF-8"?><svg id="Layer_2" xmlns="http://www.w3.org/2000/svg" viewBox="0 0 160 160"><defs><style>.cls-1{fill:#fffdf5;}.cls-2{fill:#191c1b;}</style></defs><g id="Roundel_Base"><path id="Background" class="cls-2" d="M111.88,153.35c40.51-17.61,59.07-64.72,41.46-105.23C135.74,7.61,88.62-10.96,48.12,6.65,7.61,24.26-10.96,71.38,6.65,111.89c17.61,40.51,64.72,59.07,105.23,41.46Z"/><g id="Symbol"><path class="cls-1" d="M96.33,91.34c.84-1.16,1.51-2.36,2-3.58,.27-.66,.57-1.45,.8-2.29,.45-1.58,.7-3.2,.75-4.81,.05-1.67-.09-3.3-.42-4.84-.35-1.63-.88-3.17-1.58-4.6-.74-1.5-1.63-2.88-2.64-4.07-2.1-2.5-4.79-4.47-7.78-5.67-2.96-1.21-6.25-1.67-9.53-1.34-1.61,.17-3.19,.54-4.72,1.09-1.51,.56-2.96,1.3-4.32,2.21-1.36,.93-2.58,2.01-3.65,3.19-1.11,1.25-2.05,2.59-2.78,3.98-.78,1.49-1.37,3.02-1.74,4.54-.38,1.57-.58,3.2-.59,4.82,0,3.66,.99,7.21,2.84,10.29,1.86,3.1,4.53,5.64,7.7,7.34,2.84,1.54,6.05,2.34,9.33,2.34,.34,0,.69,0,1.04-.03,2.26-.11,4.47-.61,6.56-1.48l-1.33-1.34c-1.71,.63-3.52,1.01-5.31,1.1-3.33,.17-6.61-.56-9.48-2.11-2.91-1.56-5.34-3.87-7.04-6.71-1.69-2.81-2.59-6.05-2.59-9.39,0-1.49,.19-2.97,.54-4.42,.34-1.39,.87-2.79,1.59-4.15,.67-1.27,1.52-2.49,2.54-3.64,.97-1.08,2.1-2.07,3.34-2.92,1.24-.83,2.57-1.52,3.94-2.02,1.39-.51,2.85-.84,4.32-1,2.99-.31,6,.12,8.71,1.22,2.73,1.1,5.19,2.89,7.11,5.18,.92,1.09,1.74,2.34,2.42,3.72,.64,1.3,1.12,2.72,1.44,4.2,.3,1.4,.43,2.89,.38,4.43-.04,1.47-.27,2.94-.69,4.4-.21,.76-.49,1.49-.73,2.11-.44,1.08-1.04,2.17-1.8,3.22-.39,.54-1.06,1.23-1.06,1.24l-.59,.61,11.11,11.15h2.43l-11.14-11.18c.22-.25,.46-.54,.65-.81h0Z"/><path class="cls-1" d="M100.01,91.74c.69-1.12,1.19-2.19,1.39-2.67,.43-1.06,.72-1.88,.94-2.68,.53-1.85,.82-3.74,.87-5.62,.06-1.95-.11-3.85-.49-5.65-.41-1.89-1.03-3.7-1.85-5.38-.86-1.75-1.9-3.35-3.09-4.75-2.45-2.92-5.59-5.21-9.08-6.62-3.47-1.42-7.31-1.96-11.12-1.57-1.88,.2-3.74,.63-5.52,1.28-1.77,.65-3.46,1.52-5.05,2.59-1.58,1.08-3.01,2.34-4.26,3.73-1.29,1.46-2.39,3.02-3.24,4.65-.91,1.73-1.59,3.52-2.03,5.31-.45,1.84-.68,3.73-.69,5.63,0,4.21,1.18,8.48,3.32,12.02,2.17,3.62,5.28,6.59,8.99,8.57,3.29,1.78,7.13,2.73,10.94,2.73,.39,0,.78-.01,1.17-.03,3.05-.15,6.12-.95,8.91-2.3l-1.29-1.29c-2.44,1.1-5.08,1.75-7.71,1.87-3.88,.2-7.87-.68-11.22-2.5-3.44-1.84-6.32-4.59-8.34-7.95-1.98-3.28-3.07-7.23-3.07-11.12,0-1.76,.22-3.52,.64-5.23,.4-1.66,1.04-3.31,1.88-4.92,.79-1.51,1.81-2.96,3-4.31,1.15-1.29,2.48-2.45,3.95-3.45,1.46-.99,3.04-1.79,4.67-2.4,1.65-.6,3.37-1,5.11-1.18,3.53-.36,7.09,.14,10.3,1.45,3.24,1.31,6.15,3.43,8.42,6.14,1.1,1.3,2.06,2.78,2.86,4.41,.76,1.55,1.33,3.23,1.71,4.98,.36,1.67,.51,3.43,.45,5.24-.05,1.74-.32,3.49-.81,5.2-.2,.74-.47,1.5-.86,2.47-.17,.38-.78,1.73-1.62,2.97l-.4,.59,11.32,11.37h2.42l-11.54-11.59h0Z"/><path class="cls-1" d="M92.66,90.61l.57-.7c.11-.14,.24-.3,.36-.47,.05-.07,.1-.14,.15-.21,.15-.22,.31-.44,.46-.69,.37-.64,.76-1.33,1.06-2.08,.24-.6,.48-1.24,.66-1.89,.74-2.57,.83-5.34,.27-8.04-.29-1.35-.73-2.64-1.31-3.82-.62-1.26-1.37-2.4-2.2-3.38-1.75-2.09-3.99-3.72-6.47-4.72-2.46-1-5.2-1.39-7.93-1.11-1.33,.14-2.65,.45-3.93,.91-1.25,.46-2.46,1.08-3.59,1.84-1.16,.8-2.19,1.7-3.04,2.66-.93,1.05-1.71,2.17-2.31,3.32-.65,1.25-1.14,2.52-1.44,3.78-.32,1.31-.48,2.66-.49,4.01h0c0,3.05,.82,6,2.36,8.56,1.55,2.58,3.76,4.7,6.41,6.11,2.36,1.28,5.03,1.94,7.77,1.94,.28,0,.57,0,.86-.02,1.4-.07,2.79-.32,4.12-.74l-1.39-1.39c-.92,.23-1.86,.37-2.82,.42-2.73,.14-5.4-.46-7.73-1.72-2.37-1.27-4.36-3.17-5.75-5.48-1.38-2.29-2.11-4.93-2.11-7.66,0-1.22,.15-2.43,.44-3.61,.27-1.12,.71-2.26,1.29-3.38,.54-1.02,1.24-2.03,2.07-2.97,.76-.86,1.68-1.66,2.72-2.38,1.01-.68,2.1-1.23,3.21-1.65,1.14-.41,2.32-.68,3.52-.81,2.45-.25,4.9,.1,7.11,1,2.23,.9,4.23,2.36,5.8,4.23,.75,.88,1.41,1.9,1.97,3.04,.52,1.06,.91,2.21,1.18,3.42,.5,2.41,.42,4.9-.25,7.21-.15,.55-.34,1.08-.6,1.71-.26,.64-.61,1.27-.95,1.86-.1,.18-.23,.36-.37,.55-.06,.08-.12,.16-.17,.24l-.02,.03c-.06,.1-.15,.21-.25,.33-.04,.05-.09,.1-.12,.15l-.43,.53c-.7,.8-1.57,1.65-2.07,2.09l-.71,.6,11.09,11.14h2.43l-11.02-11.06c.5-.48,1.08-1.08,1.59-1.66h0Z"/><path class="cls-1" d="M87.85,90.59c.93-.69,2.18-1.98,2.47-2.39l.6-.79,.06-.09c.1-.17,.96-1.66,1.18-2.14l.02-.04c.21-.53,.39-1,.52-1.5,.59-2.01,.66-4.29,.22-6.42-.24-1.08-.59-2.11-1.05-3.05-.5-1.01-1.1-1.92-1.75-2.7-1.4-1.67-3.19-2.97-5.16-3.76-1.95-.8-4.14-1.11-6.33-.89-1.06,.12-2.11,.36-3.13,.72-.99,.37-1.95,.86-2.86,1.47-.91,.63-1.72,1.34-2.43,2.13-.75,.85-1.37,1.74-1.84,2.65-.52,1-.91,2.01-1.15,3-.25,1.04-.38,2.12-.39,3.2h0c0,2.44,.66,4.79,1.88,6.82,1.24,2.06,3.01,3.75,5.12,4.88,1.88,1.02,4.02,1.55,6.21,1.55,.22,0,.45,0,.67-.02,.51-.03,1.02-.09,1.52-.17l-1.55-1.56s-.04,0-.06,0c-2.12,.1-4.19-.35-5.99-1.33-1.81-.97-3.39-2.48-4.46-4.25-1.06-1.76-1.63-3.81-1.63-5.93,0-.95,.12-1.88,.34-2.8,.21-.86,.54-1.73,1-2.61,.41-.79,.95-1.56,1.6-2.3,.61-.68,1.32-1.3,2.11-1.85,.79-.53,1.63-.96,2.48-1.28,.88-.32,1.8-.53,2.72-.63,1.91-.19,3.81,.07,5.51,.77,1.72,.69,3.28,1.83,4.5,3.28,.57,.68,1.09,1.47,1.53,2.35,.4,.81,.7,1.7,.91,2.64,.36,1.75,.32,3.61-.12,5.29h-2.36l1.75,1.76c-.18,.35-.53,.98-.83,1.49l-3.23-3.24h-2.43l4.62,4.64c-.28,.3-.72,.75-1.16,1.14l-5.76-5.79h-2.43l6.79,6.82c-.5,.3-1.07,.61-1.48,.83l-7.61-7.64h-2.43l8.43,8.46,11.94,11.99h2.43l-11.49-11.54c.66-.36,1.47-.83,1.98-1.21h0Z"/></g></g></svg>