<?xml version="1.0" encoding="UTF-8"?><svg id="Layer_2" xmlns="http://www.w3.org/2000/svg" viewBox="0 0 160 160"><defs><style>.cls-1{fill:none;}.cls-2{fill:#fffdf5;}</style></defs><g id="Roundel_Text"><path id="Background" class="cls-1" d="M111.88,153.35c40.51-17.61,59.07-64.72,41.46-105.23C135.74,7.61,88.62-10.96,48.12,6.65,7.61,24.26-10.96,71.38,6.65,111.89c17.61,40.51,64.72,59.07,105.23,41.46Z"/><path class="cls-2" d="M54.37,25.33c-.41-.95,.03-2.07,.98-2.48,.95-.41,2.07,.03,2.48,.98,.41,.95-.03,2.07-.98,2.48-.95,.41-2.07-.03-2.48-.98Z"/><path class="cls-2" d="M76.53,13.69l3.9,.05c3.27,.04,5.18,1.82,5.14,5.27-.04,3.36-2.07,5.12-5.41,5.08l-3.75-.05,.13-10.34h0Zm2.48,8.73h1.19c2.13,.04,3.19-1.1,3.22-3.41v-.09c.03-2.39-.94-3.5-3.06-3.53l-1.28-.02-.73-.21,.21,.72-.08,6.14-.21,.57,.73-.18h0Z"/><path class="cls-2" d="M93.01,14.94l7.33,1.88-.43,1.66-4.84-1.24-.8-.4,.02,.81-.38,1.47-.22,.43,.37-.04,3.55,.91-.43,1.66-3.06-.78-.75-.42v.39s-.5,1.93-.5,1.93l-.43,.74,.94-.02,4.99,1.28-.43,1.69-7.5-1.92,2.57-10.02h0Z"/><path class="cls-2" d="M103.21,25.44l1.87,.96c-.36,1.13,.26,2.24,1.58,2.92,1.2,.62,1.88,.3,2.27-.46,.44-.84-.53-1.68-1.57-2.65-1.26-1.19-2.61-2.58-1.7-4.35,.79-1.52,2.62-2.12,4.79-1,2.24,1.16,2.97,2.84,2.35,4.79l-1.76-.91c.3-1.06-.09-1.85-1.34-2.5-1.16-.6-1.88-.33-2.24,.37-.41,.8,.55,1.65,1.58,2.64,1.27,1.2,2.68,2.63,1.74,4.43-.84,1.62-2.63,2.22-4.91,1.04-2.36-1.22-3.34-3.1-2.67-5.29h0Z"/><path class="cls-2" d="M119.9,27.09l1.61,1.25-6.35,8.17-1.61-1.25,6.35-8.17Z"/><path class="cls-2" d="M122.9,36.47c2.62-2.26,5.59-2.09,7.51,.14,1.45,1.69,1.66,3.38,.83,5.06l-1.78-1.16c.6-.95,.52-1.81-.35-2.81-1.12-1.3-2.98-1.28-4.79,.29l-.11,.1c-1.56,1.34-2.07,2.96-.78,4.46,1.22,1.41,2.79,1.16,3.18,1.08-.47,.34-2.99,1.72-4.75-.33-1.8-2.09-1.55-4.61,1.04-6.85h0Zm4.35,6.6l-1.65-1.91,1.22-1.05,2.88,3.34-4.23,3.65-1.1-1.27,2.89-2.76h0Z"/><path class="cls-2" d="M141.39,54.72l-9.28,4.56-.84-1.7,4.31-7.2,1.17-1.47-2.08,1.35-5.63,2.77-.81-1.65,9.28-4.56,.99,2.03-4.1,6.78-1.43,1.64,.19-.14,2.1-1.43,5.31-2.61,.81,1.65h0Z"/><path class="cls-2" d="M145.51,69.98l.28,2.02-10.24,1.41-.28-2.02,10.24-1.41Z"/><path class="cls-2" d="M145.86,88.56l-10.32-.66,.12-1.89,7.31-4.11,1.74-.7-2.48,.14-6.27-.4,.11-1.84,10.32,.66-.14,2.25-6.93,3.85-2.06,.71,.24-.03,2.54-.2,5.91,.38-.12,1.84h.01Z"/><path class="cls-2" d="M141.5,105.02l-9.82-3.26,.6-1.81,8.12-2.11,1.86-.23-2.43-.49-5.96-1.98,.58-1.74,9.82,3.26-.71,2.14-7.68,1.97-2.17,.17,.23,.03,2.51,.45,5.62,1.87-.58,1.74h0Z"/><path class="cls-2" d="M133.96,109.09c2.65,1.73,3.52,4.56,1.73,7.3-1.71,2.63-4.56,3.07-7.32,1.28-2.73-1.78-3.49-4.61-1.73-7.32,1.76-2.7,4.55-3.07,7.31-1.26h0Zm-4.46,6.78l.07,.04c1.97,1.28,3.68,1.17,4.75-.47,1.07-1.64,.52-3.25-1.48-4.55l-.06-.04c-1.97-1.28-3.69-1.19-4.76,.47-1.07,1.64-.49,3.27,1.49,4.56Z"/><path class="cls-2" d="M121.66,131.76l-4.4-10.04,1.7-1.58,9.69,5.11-1.59,1.48-6.83-3.75-1.74-1.49,1.36,1.84,3.34,7.01-1.53,1.42Z"/><path class="cls-2" d="M107.32,131.61l3.81-2.19-.45-2.56,1.74-1,1.77,10.92-2.23,1.28-8.44-7.08,1.82-1.05,1.98,1.68h0Zm1.68,.96l-.86,.1,.69,.29,2.83,2.58,1.21,1.39-.59-1.72-.77-3.81,.07-.65-.46,.63-2.11,1.21h0Z"/><path class="cls-2" d="M100.47,140.59l.1,.92h.03s.7-.66,.7-.66l2.33-.75,.55,1.72-7.92,2.55-.55-1.72,2.33-.75,.96,.13,.04-.03-.46-.77-2.47-7.68,1.9-.61,2.46,7.65Z"/><path class="cls-2" d="M89.72,145.56l-2.02,.27-1.36-10.25,2.02-.27,1.36,10.25Z"/><path class="cls-2" d="M80.92,141.3c-.22,3.15-2.28,5.29-5.54,5.06-3.13-.22-4.9-2.5-4.67-5.78,.22-3.25,2.33-5.29,5.56-5.07,3.22,.22,4.89,2.48,4.66,5.77h0Zm-8.09-.59v.08c-.17,2.35,.76,3.79,2.72,3.92,1.96,.14,3.09-1.13,3.26-3.51v-.08c.17-2.35-.75-3.8-2.72-3.94-1.96-.14-3.09,1.16-3.26,3.52h0Z"/><path class="cls-2" d="M54.57,141.34l3.32-9.8,1.8,.61,2.06,8.13,.22,1.87,.51-2.42,2.01-5.95,1.74,.59-3.32,9.8-2.14-.72-1.92-7.69-.15-2.17-.03,.23-.47,2.51-1.9,5.61-1.74-.59h0Z"/><path class="cls-2" d="M40.51,133.33l-3.08-2.56c-2.2-1.82-2.51-3.72-1.07-5.46,1.45-1.75,3.58-1.64,5.57,.01l1.13,.91,.28,.64,.29-.43,1.95-2.35,1.54,1.27-6.6,7.96Zm1.99-5.45l-.47-.36-1.12-.92c-1.25-1.03-2.13-.92-2.94,.05-.79,.95-.73,1.85,.52,2.88l1.15,.96,.43,.66h0s.26-.73,.26-.73l1.82-2.2,.36-.33h-.01s0-.01,0-.01Z"/><path class="cls-2" d="M32.29,113.68l2.66,3.5,2.48-.78,1.22,1.6-10.6,3.15-1.56-2.05,5.94-9.28,1.27,1.68-1.42,2.18Zm-.73,1.79l-.21-.84-.2,.72-2.19,3.14-1.22,1.38,1.63-.81,3.68-1.26h.66s-.68-.4-.68-.4l-1.47-1.93h0Z"/><path class="cls-2" d="M20.69,109.89l-1.72-4.13c-1.01-2.43-.56-4.1,1.17-4.82,1.04-.43,2.91-.7,4.01,1.61l.2-.09c-.17-.45-.33-1.07-.31-1.52,0-1.3,.83-2.13,2.62-2.91l.26-.11,.86,2.08-.52,.22c-1.85,.78-2.61,1.88-2.74,2.57,.21,.35,.42,.76,.61,1.23l.4,.96,.18,.75,.51-.26,3.27-1.36,.75,1.81-9.55,3.97h0Zm3.67-4.19l-.52-1.26c-.78-1.88-1.4-2.16-2.63-1.66-.91,.38-1.22,1.15-.67,2.49l.71,1.71,.13,.72,.52-.44,2.3-.95,.41-.12-.25-.49h0Z"/><path class="cls-2" d="M17.27,92.49l-.92-.02v.03s.56,.78,.56,.78l.44,2.41-1.78,.33-1.5-8.18,1.78-.33,.44,2.41-.26,.94,.02,.04,.83-.36,7.94-1.46,.36,1.96-7.91,1.45h0Z"/><path class="cls-2" d="M14.09,71.9l10.33,.58-.11,1.9-7.29,4.16-1.74,.71,2.48-.15,6.27,.35-.1,1.84-10.33-.59,.13-2.25,6.9-3.9,2.05-.73-.24,.04-2.54,.21-5.91-.33,.1-1.84h0Z"/><path class="cls-2" d="M15.63,63.94l2.22-7.24,1.64,.5-1.47,4.78-.43,.78,.81,.02,1.44,.44,.41,.24-.02-.36,1.07-3.5,1.64,.5-.93,3.02-.45,.73,.38,.02,1.91,.59,.72,.46,.02-.94,1.52-4.93,1.67,.51-2.27,7.4-9.89-3.04h0Z"/><path class="cls-2" d="M20.9,49.79l2.27-3.85c1.34-2.27,2.94-2.91,4.56-1.96,.97,.57,2.31,1.91,1.12,4.17l.19,.11c.26-.41,.66-.91,1.03-1.16,1.04-.78,2.21-.62,3.9,.35l.24,.14-1.14,1.93-.48-.28c-1.74-1.01-3.07-.96-3.71-.65-.15,.38-.35,.79-.61,1.23l-.53,.9-.49,.6,.52,.25,3.05,1.8-1,1.69-8.91-5.25h0Zm5.56,.42l.7-1.18c1.04-1.76,.89-2.42-.25-3.1-.84-.5-1.65-.29-2.39,.96l-.94,1.6-.5,.54,.67,.16,2.15,1.27,.34,.25,.24-.49h0Z"/><path class="cls-2" d="M34.41,42.07l1.46-1.51c.98,.67,2.22,.39,3.25-.67,.94-.97,.83-1.71,.22-2.31-.68-.66-1.76,.03-3,.75-1.5,.86-3.22,1.76-4.65,.38-1.23-1.19-1.27-3.12,.43-4.88,1.75-1.81,3.58-2.02,5.26-.87l-1.37,1.42c-.93-.59-1.8-.45-2.78,.56-.91,.94-.85,1.71-.29,2.25,.65,.63,1.74-.05,2.99-.75,1.51-.87,3.29-1.8,4.74-.4,1.31,1.27,1.36,3.16-.41,5-1.85,1.92-3.93,2.31-5.84,1.03h-.01Z"/></g></svg>