<?xml version="1.0" encoding="UTF-8"?><svg id="Layer_2" xmlns="http://www.w3.org/2000/svg" viewBox="0 0 4400 694.16"><defs><style>.cls-1{fill:#f98383;}.cls-2{fill:#fee058;}.cls-3{fill:#9de7da;}.cls-4{fill:#607176;}</style></defs><g id="Stripes"><polygon class="cls-2" points="3913.84 486.16 3913.84 486.16 0 486.16 0 526.16 3873.84 526.16 3930.41 526.16 3970.41 486.16 4400 56.57 4400 0 3913.84 486.16"/><polygon class="cls-1" points="3937.04 542.16 3937.04 542.16 3937.04 542.16 3937.04 542.16 3937.04 542.16 0 542.16 0 582.16 3897.04 582.16 3953.61 582.16 3953.61 582.15 3953.61 582.15 3993.61 542.16 4400 135.77 4400 79.2 3937.04 542.16"/><polygon class="cls-1" points="3937.04 542.16 3953.61 582.16 3953.61 582.15 3937.04 542.16 3937.04 542.16 3937.04 542.16 3937.04 542.16"/><polygon class="cls-3" points="3960.24 598.16 0 598.16 0 638.16 3944 638.16 3976.8 638.16 4016.8 598.16 4400 214.96 4400 158.39 3960.24 598.16"/><polygon class="cls-4" points="3983.43 654.16 3983.43 654.16 0 654.16 0 694.16 4000 694.16 4040 654.16 4400 294.16 4400 237.59 3983.43 654.16"/></g></svg>