<?xml version="1.0" encoding="UTF-8"?><svg id="Layer_2" xmlns="http://www.w3.org/2000/svg" viewBox="0 0 4260 554.16"><defs><style>.cls-1{fill:#f98383;}.cls-2{fill:#fee058;}.cls-3{fill:#9de7da;}.cls-4{fill:#607176;}</style></defs><g id="Stripes"><polygon class="cls-1" points="3937.04 402.16 3953.61 442.16 3953.61 442.15 3937.04 402.16 3937.04 402.16 3937.04 402.16 3937.04 402.16"/><g><polygon class="cls-2" points="3913.84 346.16 3913.84 346.16 0 346.16 0 386.16 3873.84 386.16 3930.41 386.16 3970.41 346.16 4260 56.57 4260 0 3913.84 346.16"/><polygon class="cls-1" points="3937.04 402.16 3937.04 402.16 3937.04 402.16 3937.04 402.16 3937.04 402.16 0 402.16 0 442.16 3897.04 442.16 3953.61 442.16 3953.61 442.15 3953.61 442.15 3993.61 402.16 4260 135.77 4260 79.2 3937.04 402.16"/><polygon class="cls-3" points="3960.24 458.16 0 458.16 0 498.16 3944 498.16 3976.8 498.16 4016.8 458.16 4260 214.96 4260 158.39 3960.24 458.16"/><polygon class="cls-4" points="3983.43 514.16 3983.43 514.16 0 514.16 0 554.16 4000 554.16 4040 514.16 4260 294.16 4260 237.59 3983.43 514.16"/></g></g></svg>